<mxfile host="app.diagrams.net" modified="2021-01-14T08:15:40.636Z" agent="5.0 (Windows NT 10.0; Win64; x64) AppleWebKit/537.36 (KHTML, like Gecko) Chrome/87.0.4280.88 Safari/537.36 OPR/73.0.3856.329" etag="mkkg1okCQpa9r-5IVimr" version="14.1.9" type="github" pages="5">
  <diagram id="5ny_hkW94YEiuJy4lOPB" name="Компоненты">
    <mxGraphModel dx="873" dy="1730" grid="1" gridSize="10" guides="1" tooltips="1" connect="1" arrows="1" fold="1" page="1" pageScale="1" pageWidth="827" pageHeight="1169" math="0" shadow="0">
      <root>
        <mxCell id="0" />
        <mxCell id="1" parent="0" />
        <mxCell id="7R8sF69MjdFVeZWc7gcs-1" value="Клиент&lt;br&gt;" style="shape=umlActor;verticalLabelPosition=bottom;verticalAlign=top;html=1;outlineConnect=0;" vertex="1" parent="1">
          <mxGeometry x="10" y="100" width="30" height="60" as="geometry" />
        </mxCell>
        <mxCell id="7R8sF69MjdFVeZWc7gcs-2" value="Специалист службы поддержки" style="shape=umlActor;verticalLabelPosition=bottom;verticalAlign=top;html=1;outlineConnect=0;" vertex="1" parent="1">
          <mxGeometry x="90" y="280" width="30" height="60" as="geometry" />
        </mxCell>
        <mxCell id="7R8sF69MjdFVeZWc7gcs-7" style="edgeStyle=orthogonalEdgeStyle;rounded=0;orthogonalLoop=1;jettySize=auto;html=1;exitX=1;exitY=0.5;exitDx=0;exitDy=0;" edge="1" parent="1" source="7R8sF69MjdFVeZWc7gcs-3" target="7R8sF69MjdFVeZWc7gcs-6">
          <mxGeometry relative="1" as="geometry" />
        </mxCell>
        <mxCell id="7R8sF69MjdFVeZWc7gcs-3" value="Маршрутизатор" style="rounded=1;whiteSpace=wrap;html=1;" vertex="1" parent="1">
          <mxGeometry x="300" y="110" width="120" height="60" as="geometry" />
        </mxCell>
        <mxCell id="7R8sF69MjdFVeZWc7gcs-10" style="edgeStyle=orthogonalEdgeStyle;rounded=0;orthogonalLoop=1;jettySize=auto;html=1;exitX=0;exitY=0;exitDx=70;exitDy=80;exitPerimeter=0;entryX=1;entryY=0.3333333333333333;entryDx=0;entryDy=0;entryPerimeter=0;" edge="1" parent="1" source="7R8sF69MjdFVeZWc7gcs-6" target="7R8sF69MjdFVeZWc7gcs-2">
          <mxGeometry relative="1" as="geometry" />
        </mxCell>
        <mxCell id="7R8sF69MjdFVeZWc7gcs-15" style="edgeStyle=orthogonalEdgeStyle;rounded=0;orthogonalLoop=1;jettySize=auto;html=1;exitX=0;exitY=0;exitDx=20;exitDy=80;exitPerimeter=0;entryX=0.5;entryY=1;entryDx=0;entryDy=0;" edge="1" parent="1" source="7R8sF69MjdFVeZWc7gcs-6" target="7R8sF69MjdFVeZWc7gcs-11">
          <mxGeometry relative="1" as="geometry">
            <Array as="points">
              <mxPoint x="500" y="180" />
              <mxPoint x="500" y="230" />
              <mxPoint x="150" y="230" />
            </Array>
          </mxGeometry>
        </mxCell>
        <mxCell id="7R8sF69MjdFVeZWc7gcs-6" value="Модули системы" style="shape=cube;whiteSpace=wrap;html=1;boundedLbl=1;backgroundOutline=1;darkOpacity=0.05;darkOpacity2=0.1;" vertex="1" parent="1">
          <mxGeometry x="460" y="100" width="120" height="80" as="geometry" />
        </mxCell>
        <mxCell id="7R8sF69MjdFVeZWc7gcs-8" value="БД" style="shape=cylinder3;whiteSpace=wrap;html=1;boundedLbl=1;backgroundOutline=1;size=15;" vertex="1" parent="1">
          <mxGeometry x="470" y="-30" width="100" height="60" as="geometry" />
        </mxCell>
        <mxCell id="7R8sF69MjdFVeZWc7gcs-9" value="" style="endArrow=classic;startArrow=classic;html=1;entryX=0.5;entryY=1;entryDx=0;entryDy=0;entryPerimeter=0;" edge="1" parent="1" source="7R8sF69MjdFVeZWc7gcs-6" target="7R8sF69MjdFVeZWc7gcs-8">
          <mxGeometry width="50" height="50" relative="1" as="geometry">
            <mxPoint x="330" y="260" as="sourcePoint" />
            <mxPoint x="500" y="70" as="targetPoint" />
          </mxGeometry>
        </mxCell>
        <mxCell id="7R8sF69MjdFVeZWc7gcs-12" style="edgeStyle=orthogonalEdgeStyle;rounded=0;orthogonalLoop=1;jettySize=auto;html=1;exitX=1;exitY=0.5;exitDx=0;exitDy=0;" edge="1" parent="1" source="7R8sF69MjdFVeZWc7gcs-11" target="7R8sF69MjdFVeZWc7gcs-3">
          <mxGeometry relative="1" as="geometry" />
        </mxCell>
        <mxCell id="7R8sF69MjdFVeZWc7gcs-11" value="Интерфейс" style="rounded=1;whiteSpace=wrap;html=1;" vertex="1" parent="1">
          <mxGeometry x="90" y="110" width="120" height="60" as="geometry" />
        </mxCell>
        <mxCell id="7R8sF69MjdFVeZWc7gcs-14" value="" style="endArrow=classic;startArrow=classic;html=1;entryX=0;entryY=0.5;entryDx=0;entryDy=0;" edge="1" parent="1" source="7R8sF69MjdFVeZWc7gcs-1" target="7R8sF69MjdFVeZWc7gcs-11">
          <mxGeometry width="50" height="50" relative="1" as="geometry">
            <mxPoint x="330" y="260" as="sourcePoint" />
            <mxPoint x="380" y="210" as="targetPoint" />
          </mxGeometry>
        </mxCell>
      </root>
    </mxGraphModel>
  </diagram>
  <diagram id="InG_dG1mK5OQ_xZbI4cQ" name="Use-case">
    <mxGraphModel dx="1484" dy="954" grid="1" gridSize="10" guides="1" tooltips="1" connect="1" arrows="1" fold="1" page="1" pageScale="1" pageWidth="827" pageHeight="1169" math="0" shadow="0">
      <root>
        <mxCell id="uuokkJOY7Ae6FM4cX52a-0" />
        <mxCell id="uuokkJOY7Ae6FM4cX52a-1" parent="uuokkJOY7Ae6FM4cX52a-0" />
        <mxCell id="uuokkJOY7Ae6FM4cX52a-4" style="edgeStyle=orthogonalEdgeStyle;rounded=0;orthogonalLoop=1;jettySize=auto;html=1;exitX=0.5;exitY=0.5;exitDx=0;exitDy=0;exitPerimeter=0;entryX=0;entryY=0.5;entryDx=0;entryDy=0;" edge="1" parent="uuokkJOY7Ae6FM4cX52a-1" source="uuokkJOY7Ae6FM4cX52a-2" target="uuokkJOY7Ae6FM4cX52a-3">
          <mxGeometry relative="1" as="geometry" />
        </mxCell>
        <mxCell id="uuokkJOY7Ae6FM4cX52a-15" style="edgeStyle=orthogonalEdgeStyle;rounded=0;orthogonalLoop=1;jettySize=auto;html=1;exitX=0.5;exitY=0.5;exitDx=0;exitDy=0;exitPerimeter=0;entryX=0;entryY=0.5;entryDx=0;entryDy=0;" edge="1" parent="uuokkJOY7Ae6FM4cX52a-1" source="uuokkJOY7Ae6FM4cX52a-2" target="uuokkJOY7Ae6FM4cX52a-14">
          <mxGeometry relative="1" as="geometry" />
        </mxCell>
        <mxCell id="uuokkJOY7Ae6FM4cX52a-33" style="edgeStyle=orthogonalEdgeStyle;rounded=0;orthogonalLoop=1;jettySize=auto;html=1;exitX=0.5;exitY=0.5;exitDx=0;exitDy=0;exitPerimeter=0;entryX=0;entryY=0.5;entryDx=0;entryDy=0;" edge="1" parent="uuokkJOY7Ae6FM4cX52a-1" source="uuokkJOY7Ae6FM4cX52a-2" target="uuokkJOY7Ae6FM4cX52a-32">
          <mxGeometry relative="1" as="geometry">
            <mxPoint x="320" y="690" as="targetPoint" />
            <Array as="points">
              <mxPoint x="170" y="190" />
              <mxPoint x="170" y="685" />
            </Array>
          </mxGeometry>
        </mxCell>
        <mxCell id="uuokkJOY7Ae6FM4cX52a-2" value="Клиент&amp;nbsp;" style="shape=umlActor;verticalLabelPosition=bottom;verticalAlign=top;html=1;outlineConnect=0;" vertex="1" parent="uuokkJOY7Ae6FM4cX52a-1">
          <mxGeometry x="40" y="160" width="30" height="60" as="geometry" />
        </mxCell>
        <mxCell id="uuokkJOY7Ae6FM4cX52a-3" value="Подключение интернета" style="ellipse;whiteSpace=wrap;html=1;" vertex="1" parent="uuokkJOY7Ae6FM4cX52a-1">
          <mxGeometry x="260" y="80" width="120" height="40" as="geometry" />
        </mxCell>
        <mxCell id="uuokkJOY7Ae6FM4cX52a-5" value="Модуль&amp;nbsp; &quot;Подключение интернета&quot;" style="text;html=1;strokeColor=none;fillColor=none;align=center;verticalAlign=middle;whiteSpace=wrap;rounded=0;" vertex="1" parent="uuokkJOY7Ae6FM4cX52a-1">
          <mxGeometry x="250" y="40" width="250" height="20" as="geometry" />
        </mxCell>
        <mxCell id="uuokkJOY7Ae6FM4cX52a-26" style="rounded=0;orthogonalLoop=1;jettySize=auto;html=1;exitX=0;exitY=0.5;exitDx=0;exitDy=0;" edge="1" parent="uuokkJOY7Ae6FM4cX52a-1" source="uuokkJOY7Ae6FM4cX52a-6">
          <mxGeometry relative="1" as="geometry">
            <mxPoint x="380" y="100" as="targetPoint" />
          </mxGeometry>
        </mxCell>
        <mxCell id="uuokkJOY7Ae6FM4cX52a-6" value="Запрос ФИО" style="ellipse;whiteSpace=wrap;html=1;" vertex="1" parent="uuokkJOY7Ae6FM4cX52a-1">
          <mxGeometry x="425" y="70" width="70" height="30" as="geometry" />
        </mxCell>
        <mxCell id="uuokkJOY7Ae6FM4cX52a-25" style="rounded=0;orthogonalLoop=1;jettySize=auto;html=1;exitX=0;exitY=0.5;exitDx=0;exitDy=0;entryX=1;entryY=0.5;entryDx=0;entryDy=0;" edge="1" parent="uuokkJOY7Ae6FM4cX52a-1" source="uuokkJOY7Ae6FM4cX52a-7" target="uuokkJOY7Ae6FM4cX52a-3">
          <mxGeometry relative="1" as="geometry" />
        </mxCell>
        <mxCell id="uuokkJOY7Ae6FM4cX52a-7" value="Запрос телефона" style="ellipse;whiteSpace=wrap;html=1;" vertex="1" parent="uuokkJOY7Ae6FM4cX52a-1">
          <mxGeometry x="415" y="130" width="80" height="30" as="geometry" />
        </mxCell>
        <mxCell id="uuokkJOY7Ae6FM4cX52a-8" value="&amp;lt;&amp;lt;include&amp;gt;&amp;gt;" style="html=1;verticalAlign=bottom;labelBackgroundColor=none;endArrow=open;endFill=0;dashed=1;exitX=0;exitY=0.5;exitDx=0;exitDy=0;entryX=1;entryY=0.5;entryDx=0;entryDy=0;" edge="1" parent="uuokkJOY7Ae6FM4cX52a-1" source="uuokkJOY7Ae6FM4cX52a-24" target="uuokkJOY7Ae6FM4cX52a-6">
          <mxGeometry width="160" relative="1" as="geometry">
            <mxPoint x="320" y="260" as="sourcePoint" />
            <mxPoint x="480" y="260" as="targetPoint" />
          </mxGeometry>
        </mxCell>
        <mxCell id="uuokkJOY7Ae6FM4cX52a-9" value="&amp;lt;&amp;lt;include&amp;gt;&amp;gt;" style="html=1;verticalAlign=bottom;labelBackgroundColor=none;endArrow=open;endFill=0;dashed=1;exitX=0;exitY=0.5;exitDx=0;exitDy=0;entryX=1;entryY=0.5;entryDx=0;entryDy=0;" edge="1" parent="uuokkJOY7Ae6FM4cX52a-1" source="uuokkJOY7Ae6FM4cX52a-24" target="uuokkJOY7Ae6FM4cX52a-7">
          <mxGeometry width="160" relative="1" as="geometry">
            <mxPoint x="320" y="260" as="sourcePoint" />
            <mxPoint x="480" y="260" as="targetPoint" />
          </mxGeometry>
        </mxCell>
        <mxCell id="uuokkJOY7Ae6FM4cX52a-10" value="Создание заявки на выезд специалиста" style="ellipse;whiteSpace=wrap;html=1;" vertex="1" parent="uuokkJOY7Ae6FM4cX52a-1">
          <mxGeometry x="545" y="200" width="90" height="60" as="geometry" />
        </mxCell>
        <mxCell id="uuokkJOY7Ae6FM4cX52a-11" value="Проверка наличия клинента" style="ellipse;whiteSpace=wrap;html=1;" vertex="1" parent="uuokkJOY7Ae6FM4cX52a-1">
          <mxGeometry x="460" y="170" width="85" height="50" as="geometry" />
        </mxCell>
        <mxCell id="uuokkJOY7Ae6FM4cX52a-12" value="Создание клиента" style="ellipse;whiteSpace=wrap;html=1;direction=south;" vertex="1" parent="uuokkJOY7Ae6FM4cX52a-1">
          <mxGeometry x="590" y="150" width="70" height="30" as="geometry" />
        </mxCell>
        <mxCell id="uuokkJOY7Ae6FM4cX52a-13" value="&amp;lt;&amp;lt;extend&amp;gt;&amp;gt;" style="html=1;verticalAlign=bottom;labelBackgroundColor=none;endArrow=open;endFill=0;dashed=1;exitX=0.5;exitY=1;exitDx=0;exitDy=0;entryX=1;entryY=0.5;entryDx=0;entryDy=0;" edge="1" parent="uuokkJOY7Ae6FM4cX52a-1" source="uuokkJOY7Ae6FM4cX52a-12" target="uuokkJOY7Ae6FM4cX52a-11">
          <mxGeometry width="160" relative="1" as="geometry">
            <mxPoint x="400" y="240" as="sourcePoint" />
            <mxPoint x="560" y="240" as="targetPoint" />
          </mxGeometry>
        </mxCell>
        <mxCell id="uuokkJOY7Ae6FM4cX52a-14" value="Запрос баланса на счете" style="ellipse;whiteSpace=wrap;html=1;" vertex="1" parent="uuokkJOY7Ae6FM4cX52a-1">
          <mxGeometry x="265" y="360" width="110" height="40" as="geometry" />
        </mxCell>
        <mxCell id="uuokkJOY7Ae6FM4cX52a-16" value="Модуль &quot;Запрос баланса на счете&quot;" style="text;html=1;strokeColor=none;fillColor=none;align=center;verticalAlign=middle;whiteSpace=wrap;rounded=0;" vertex="1" parent="uuokkJOY7Ae6FM4cX52a-1">
          <mxGeometry x="255" y="300" width="240" height="20" as="geometry" />
        </mxCell>
        <mxCell id="uuokkJOY7Ae6FM4cX52a-28" style="edgeStyle=none;rounded=0;orthogonalLoop=1;jettySize=auto;html=1;exitX=0;exitY=0.5;exitDx=0;exitDy=0;entryX=1;entryY=0.5;entryDx=0;entryDy=0;" edge="1" parent="uuokkJOY7Ae6FM4cX52a-1" source="uuokkJOY7Ae6FM4cX52a-17" target="uuokkJOY7Ae6FM4cX52a-14">
          <mxGeometry relative="1" as="geometry" />
        </mxCell>
        <mxCell id="uuokkJOY7Ae6FM4cX52a-17" value="Запрос номера договора" style="ellipse;whiteSpace=wrap;html=1;" vertex="1" parent="uuokkJOY7Ae6FM4cX52a-1">
          <mxGeometry x="413" y="390" width="87" height="50" as="geometry" />
        </mxCell>
        <mxCell id="uuokkJOY7Ae6FM4cX52a-18" value="&amp;lt;&amp;lt;extend&amp;gt;&amp;gt;" style="html=1;verticalAlign=bottom;labelBackgroundColor=none;endArrow=open;endFill=0;dashed=1;" edge="1" parent="uuokkJOY7Ae6FM4cX52a-1">
          <mxGeometry width="160" relative="1" as="geometry">
            <mxPoint x="400" y="330" as="sourcePoint" />
            <mxPoint x="560" y="330" as="targetPoint" />
          </mxGeometry>
        </mxCell>
        <mxCell id="uuokkJOY7Ae6FM4cX52a-19" value="&amp;lt;&amp;lt;extend&amp;gt;&amp;gt;" style="html=1;verticalAlign=bottom;labelBackgroundColor=none;endArrow=open;endFill=0;dashed=1;" edge="1" parent="uuokkJOY7Ae6FM4cX52a-1">
          <mxGeometry width="160" relative="1" as="geometry">
            <mxPoint x="400" y="330" as="sourcePoint" />
            <mxPoint x="560" y="330" as="targetPoint" />
          </mxGeometry>
        </mxCell>
        <mxCell id="uuokkJOY7Ae6FM4cX52a-20" value="&amp;lt;&amp;lt;include&amp;gt;&amp;gt;" style="html=1;verticalAlign=bottom;labelBackgroundColor=none;endArrow=open;endFill=0;dashed=1;exitX=0;exitY=0.5;exitDx=0;exitDy=0;entryX=1;entryY=0.5;entryDx=0;entryDy=0;" edge="1" parent="uuokkJOY7Ae6FM4cX52a-1" source="uuokkJOY7Ae6FM4cX52a-24" target="uuokkJOY7Ae6FM4cX52a-17">
          <mxGeometry width="160" relative="1" as="geometry">
            <mxPoint x="320" y="520" as="sourcePoint" />
            <mxPoint x="480" y="520" as="targetPoint" />
          </mxGeometry>
        </mxCell>
        <mxCell id="uuokkJOY7Ae6FM4cX52a-21" value="&amp;lt;&amp;lt;include&amp;gt;&amp;gt;" style="html=1;verticalAlign=bottom;labelBackgroundColor=none;endArrow=open;endFill=0;dashed=1;entryX=1;entryY=0.5;entryDx=0;entryDy=0;exitX=0;exitY=0.5;exitDx=0;exitDy=0;" edge="1" parent="uuokkJOY7Ae6FM4cX52a-1" source="uuokkJOY7Ae6FM4cX52a-29" target="uuokkJOY7Ae6FM4cX52a-30">
          <mxGeometry width="160" relative="1" as="geometry">
            <mxPoint x="350" y="560" as="sourcePoint" />
            <mxPoint x="510" y="560" as="targetPoint" />
          </mxGeometry>
        </mxCell>
        <mxCell id="uuokkJOY7Ae6FM4cX52a-23" value="Проверка наличия договора" style="ellipse;whiteSpace=wrap;html=1;" vertex="1" parent="uuokkJOY7Ae6FM4cX52a-1">
          <mxGeometry x="585" y="390" width="80" height="55" as="geometry" />
        </mxCell>
        <mxCell id="uuokkJOY7Ae6FM4cX52a-24" value="Запрос данных" style="ellipse;whiteSpace=wrap;html=1;" vertex="1" parent="uuokkJOY7Ae6FM4cX52a-1">
          <mxGeometry x="910" y="105" width="120" height="80" as="geometry" />
        </mxCell>
        <mxCell id="uuokkJOY7Ae6FM4cX52a-29" value="Расчет остатка" style="ellipse;whiteSpace=wrap;html=1;" vertex="1" parent="uuokkJOY7Ae6FM4cX52a-1">
          <mxGeometry x="555" y="460" width="70" height="30" as="geometry" />
        </mxCell>
        <mxCell id="uuokkJOY7Ae6FM4cX52a-31" style="edgeStyle=none;rounded=0;orthogonalLoop=1;jettySize=auto;html=1;exitX=0;exitY=0.5;exitDx=0;exitDy=0;" edge="1" parent="uuokkJOY7Ae6FM4cX52a-1" source="uuokkJOY7Ae6FM4cX52a-30" target="uuokkJOY7Ae6FM4cX52a-14">
          <mxGeometry relative="1" as="geometry" />
        </mxCell>
        <mxCell id="uuokkJOY7Ae6FM4cX52a-30" value="Возврат остатки с помощью синтезированной речи" style="ellipse;whiteSpace=wrap;html=1;" vertex="1" parent="uuokkJOY7Ae6FM4cX52a-1">
          <mxGeometry x="354" y="480" width="120" height="70" as="geometry" />
        </mxCell>
        <mxCell id="uuokkJOY7Ae6FM4cX52a-32" value="Технические неполадки" style="ellipse;whiteSpace=wrap;html=1;" vertex="1" parent="uuokkJOY7Ae6FM4cX52a-1">
          <mxGeometry x="210" y="660" width="85" height="50" as="geometry" />
        </mxCell>
        <mxCell id="uuokkJOY7Ae6FM4cX52a-36" style="edgeStyle=orthogonalEdgeStyle;rounded=0;orthogonalLoop=1;jettySize=auto;html=1;exitX=0;exitY=0.5;exitDx=0;exitDy=0;" edge="1" parent="uuokkJOY7Ae6FM4cX52a-1" source="uuokkJOY7Ae6FM4cX52a-34" target="uuokkJOY7Ae6FM4cX52a-32">
          <mxGeometry relative="1" as="geometry" />
        </mxCell>
        <mxCell id="uuokkJOY7Ae6FM4cX52a-34" value="Запрос номера договора" style="ellipse;whiteSpace=wrap;html=1;" vertex="1" parent="uuokkJOY7Ae6FM4cX52a-1">
          <mxGeometry x="375" y="660" width="87" height="50" as="geometry" />
        </mxCell>
        <mxCell id="uuokkJOY7Ae6FM4cX52a-35" value="&amp;lt;&amp;lt;include&amp;gt;&amp;gt;" style="html=1;verticalAlign=bottom;labelBackgroundColor=none;endArrow=open;endFill=0;dashed=1;exitX=0;exitY=0.5;exitDx=0;exitDy=0;entryX=1;entryY=0.5;entryDx=0;entryDy=0;edgeStyle=orthogonalEdgeStyle;" edge="1" parent="uuokkJOY7Ae6FM4cX52a-1" source="uuokkJOY7Ae6FM4cX52a-24" target="uuokkJOY7Ae6FM4cX52a-34">
          <mxGeometry width="160" relative="1" as="geometry">
            <mxPoint x="920.0000000000002" y="155" as="sourcePoint" />
            <mxPoint x="510" y="425" as="targetPoint" />
            <Array as="points">
              <mxPoint x="910" y="685" />
            </Array>
          </mxGeometry>
        </mxCell>
        <mxCell id="uuokkJOY7Ae6FM4cX52a-37" value="Проверка наличия договора" style="ellipse;whiteSpace=wrap;html=1;" vertex="1" parent="uuokkJOY7Ae6FM4cX52a-1">
          <mxGeometry x="462" y="720" width="80" height="55" as="geometry" />
        </mxCell>
        <mxCell id="uuokkJOY7Ae6FM4cX52a-38" value="Модуль &quot;Технические неполадки&quot;" style="text;html=1;strokeColor=none;fillColor=none;align=center;verticalAlign=middle;whiteSpace=wrap;rounded=0;" vertex="1" parent="uuokkJOY7Ae6FM4cX52a-1">
          <mxGeometry x="265" y="585" width="230" height="20" as="geometry" />
        </mxCell>
        <mxCell id="uuokkJOY7Ae6FM4cX52a-39" value="&amp;lt;&amp;lt;include&amp;gt;&amp;gt;" style="html=1;verticalAlign=bottom;labelBackgroundColor=none;endArrow=open;endFill=0;dashed=1;exitX=1;exitY=1;exitDx=0;exitDy=0;entryX=0;entryY=0.5;entryDx=0;entryDy=0;" edge="1" parent="uuokkJOY7Ae6FM4cX52a-1" source="uuokkJOY7Ae6FM4cX52a-17" target="uuokkJOY7Ae6FM4cX52a-23">
          <mxGeometry width="160" relative="1" as="geometry">
            <mxPoint x="920.0000000000002" y="155" as="sourcePoint" />
            <mxPoint x="505" y="95" as="targetPoint" />
          </mxGeometry>
        </mxCell>
        <mxCell id="uuokkJOY7Ae6FM4cX52a-40" value="&amp;lt;&amp;lt;include&amp;gt;&amp;gt;" style="html=1;verticalAlign=bottom;labelBackgroundColor=none;endArrow=open;endFill=0;dashed=1;exitX=1;exitY=1;exitDx=0;exitDy=0;entryX=0;entryY=0.5;entryDx=0;entryDy=0;" edge="1" parent="uuokkJOY7Ae6FM4cX52a-1" source="uuokkJOY7Ae6FM4cX52a-34" target="uuokkJOY7Ae6FM4cX52a-37">
          <mxGeometry width="160" relative="1" as="geometry">
            <mxPoint x="460" y="550" as="sourcePoint" />
            <mxPoint x="620" y="550" as="targetPoint" />
          </mxGeometry>
        </mxCell>
        <mxCell id="uuokkJOY7Ae6FM4cX52a-41" value="Маршрутизация в службу поддержки" style="ellipse;whiteSpace=wrap;html=1;" vertex="1" parent="uuokkJOY7Ae6FM4cX52a-1">
          <mxGeometry x="565" y="710" width="120" height="60" as="geometry" />
        </mxCell>
      </root>
    </mxGraphModel>
  </diagram>
  <diagram id="40LhhY635hkRvbRHjFCt" name="Подключение">
    <mxGraphModel dx="1484" dy="954" grid="1" gridSize="10" guides="1" tooltips="1" connect="1" arrows="1" fold="1" page="1" pageScale="1" pageWidth="827" pageHeight="1169" math="0" shadow="0">
      <root>
        <mxCell id="xN5gfmmT9-5bx393HsD2-0" />
        <mxCell id="xN5gfmmT9-5bx393HsD2-1" parent="xN5gfmmT9-5bx393HsD2-0" />
        <mxCell id="3OX3H_4vjiMyVzlkPMuR-0" value="Клиент" style="shape=umlActor;verticalLabelPosition=bottom;verticalAlign=top;html=1;outlineConnect=0;" vertex="1" parent="xN5gfmmT9-5bx393HsD2-1">
          <mxGeometry x="70" y="90" width="30" height="60" as="geometry" />
        </mxCell>
        <mxCell id="3OX3H_4vjiMyVzlkPMuR-2" value="Модуль &quot;подключение интернета&quot;" style="rounded=0;whiteSpace=wrap;html=1;" vertex="1" parent="xN5gfmmT9-5bx393HsD2-1">
          <mxGeometry x="180" y="10" width="120" height="60" as="geometry" />
        </mxCell>
        <mxCell id="3OX3H_4vjiMyVzlkPMuR-4" value="" style="html=1;points=[];perimeter=orthogonalPerimeter;" vertex="1" parent="xN5gfmmT9-5bx393HsD2-1">
          <mxGeometry x="235" y="200" width="10" height="110" as="geometry" />
        </mxCell>
        <mxCell id="3OX3H_4vjiMyVzlkPMuR-5" value="запрос на &lt;br&gt;подключение &lt;br&gt;интернета" style="html=1;verticalAlign=bottom;endArrow=block;entryX=0.2;entryY=0.45;exitX=0.933;exitY=0.279;exitDx=0;exitDy=0;exitPerimeter=0;entryDx=0;entryDy=0;entryPerimeter=0;" edge="1" target="3OX3H_4vjiMyVzlkPMuR-4" parent="xN5gfmmT9-5bx393HsD2-1" source="R8d4BM-Ku5G7ODbxiKeE-0">
          <mxGeometry relative="1" as="geometry">
            <mxPoint x="150" y="150" as="sourcePoint" />
          </mxGeometry>
        </mxCell>
        <mxCell id="3OX3H_4vjiMyVzlkPMuR-6" value="запрос ФИО" style="html=1;verticalAlign=bottom;endArrow=open;dashed=1;endSize=8;exitX=0.067;exitY=0.596;exitDx=0;exitDy=0;exitPerimeter=0;" edge="1" source="3OX3H_4vjiMyVzlkPMuR-4" parent="xN5gfmmT9-5bx393HsD2-1" target="R8d4BM-Ku5G7ODbxiKeE-0">
          <mxGeometry relative="1" as="geometry">
            <mxPoint x="150" y="226" as="targetPoint" />
          </mxGeometry>
        </mxCell>
        <mxCell id="R8d4BM-Ku5G7ODbxiKeE-0" value="" style="html=1;points=[];perimeter=orthogonalPerimeter;" vertex="1" parent="xN5gfmmT9-5bx393HsD2-1">
          <mxGeometry x="80" y="210" width="10" height="120" as="geometry" />
        </mxCell>
        <mxCell id="R8d4BM-Ku5G7ODbxiKeE-3" value="ФИО" style="html=1;verticalAlign=bottom;endArrow=block;entryX=0.5;entryY=0.125;entryDx=0;entryDy=0;entryPerimeter=0;" edge="1" parent="xN5gfmmT9-5bx393HsD2-1" source="R8d4BM-Ku5G7ODbxiKeE-0" target="R8d4BM-Ku5G7ODbxiKeE-6">
          <mxGeometry width="80" relative="1" as="geometry">
            <mxPoint x="280" y="320" as="sourcePoint" />
            <mxPoint x="190" y="320" as="targetPoint" />
          </mxGeometry>
        </mxCell>
        <mxCell id="R8d4BM-Ku5G7ODbxiKeE-4" value="БД" style="rounded=0;whiteSpace=wrap;html=1;" vertex="1" parent="xN5gfmmT9-5bx393HsD2-1">
          <mxGeometry x="400" y="10" width="120" height="60" as="geometry" />
        </mxCell>
        <mxCell id="R8d4BM-Ku5G7ODbxiKeE-5" value="" style="html=1;points=[];perimeter=orthogonalPerimeter;" vertex="1" parent="xN5gfmmT9-5bx393HsD2-1">
          <mxGeometry x="460" y="330" width="10" height="80" as="geometry" />
        </mxCell>
        <mxCell id="R8d4BM-Ku5G7ODbxiKeE-6" value="" style="html=1;points=[];perimeter=orthogonalPerimeter;" vertex="1" parent="xN5gfmmT9-5bx393HsD2-1">
          <mxGeometry x="235" y="320" width="10" height="80" as="geometry" />
        </mxCell>
        <mxCell id="R8d4BM-Ku5G7ODbxiKeE-7" value="проверка" style="html=1;verticalAlign=bottom;endArrow=block;" edge="1" parent="xN5gfmmT9-5bx393HsD2-1">
          <mxGeometry width="80" relative="1" as="geometry">
            <mxPoint x="243" y="330" as="sourcePoint" />
            <mxPoint x="458" y="330" as="targetPoint" />
          </mxGeometry>
        </mxCell>
        <mxCell id="R8d4BM-Ku5G7ODbxiKeE-9" value="" style="html=1;verticalAlign=bottom;endArrow=block;exitX=1.167;exitY=0.563;exitDx=0;exitDy=0;exitPerimeter=0;edgeStyle=orthogonalEdgeStyle;" edge="1" parent="xN5gfmmT9-5bx393HsD2-1" source="R8d4BM-Ku5G7ODbxiKeE-6">
          <mxGeometry width="80" relative="1" as="geometry">
            <mxPoint x="320" y="250" as="sourcePoint" />
            <mxPoint x="247" y="390" as="targetPoint" />
            <Array as="points">
              <mxPoint x="340" y="365" />
              <mxPoint x="340" y="390" />
            </Array>
          </mxGeometry>
        </mxCell>
        <mxCell id="DhybWXxx2tqUyCC-Kaqi-6" value="создание нового &lt;br&gt;клиента" style="edgeLabel;html=1;align=center;verticalAlign=middle;resizable=0;points=[];" vertex="1" connectable="0" parent="R8d4BM-Ku5G7ODbxiKeE-9">
          <mxGeometry x="-0.2173" relative="1" as="geometry">
            <mxPoint as="offset" />
          </mxGeometry>
        </mxCell>
        <mxCell id="DhybWXxx2tqUyCC-Kaqi-1" value="" style="html=1;points=[];perimeter=orthogonalPerimeter;" vertex="1" parent="xN5gfmmT9-5bx393HsD2-1">
          <mxGeometry x="235" y="450" width="10" height="80" as="geometry" />
        </mxCell>
        <mxCell id="DhybWXxx2tqUyCC-Kaqi-3" value="ответ проверки" style="html=1;verticalAlign=bottom;endArrow=open;dashed=1;endSize=8;entryX=1.071;entryY=0.404;entryDx=0;entryDy=0;entryPerimeter=0;" edge="1" parent="xN5gfmmT9-5bx393HsD2-1" target="R8d4BM-Ku5G7ODbxiKeE-6">
          <mxGeometry relative="1" as="geometry">
            <mxPoint x="456" y="352" as="sourcePoint" />
            <mxPoint x="190" y="320" as="targetPoint" />
          </mxGeometry>
        </mxCell>
        <mxCell id="DhybWXxx2tqUyCC-Kaqi-7" value="создание заявки &lt;br&gt;на выезд &lt;br&gt;специалиста" style="html=1;verticalAlign=bottom;endArrow=block;edgeStyle=orthogonalEdgeStyle;exitX=1.5;exitY=0.125;exitDx=0;exitDy=0;exitPerimeter=0;" edge="1" parent="xN5gfmmT9-5bx393HsD2-1" source="DhybWXxx2tqUyCC-Kaqi-1">
          <mxGeometry width="80" relative="1" as="geometry">
            <mxPoint x="260" y="420" as="sourcePoint" />
            <mxPoint x="250" y="510" as="targetPoint" />
            <Array as="points">
              <mxPoint x="360" y="460" />
              <mxPoint x="360" y="510" />
            </Array>
          </mxGeometry>
        </mxCell>
      </root>
    </mxGraphModel>
  </diagram>
  <diagram id="AE-t9hPnATLppCfE-Sqa" name="Запрос">
    <mxGraphModel dx="1060" dy="681" grid="1" gridSize="10" guides="1" tooltips="1" connect="1" arrows="1" fold="1" page="1" pageScale="1" pageWidth="827" pageHeight="1169" math="0" shadow="0">
      <root>
        <mxCell id="ffn0mK8a2U2mnT5-lBKg-0" />
        <mxCell id="ffn0mK8a2U2mnT5-lBKg-1" parent="ffn0mK8a2U2mnT5-lBKg-0" />
        <mxCell id="4k43xHi71d6z0HqlaNtY-0" value="Клиент" style="shape=umlActor;verticalLabelPosition=bottom;verticalAlign=top;html=1;outlineConnect=0;" vertex="1" parent="ffn0mK8a2U2mnT5-lBKg-1">
          <mxGeometry x="70" y="90" width="30" height="60" as="geometry" />
        </mxCell>
        <mxCell id="4k43xHi71d6z0HqlaNtY-1" value="Модуль &quot;запрос баланса&quot;" style="rounded=0;whiteSpace=wrap;html=1;" vertex="1" parent="ffn0mK8a2U2mnT5-lBKg-1">
          <mxGeometry x="170" y="100" width="120" height="60" as="geometry" />
        </mxCell>
        <mxCell id="4k43xHi71d6z0HqlaNtY-2" value="" style="html=1;points=[];perimeter=orthogonalPerimeter;" vertex="1" parent="ffn0mK8a2U2mnT5-lBKg-1">
          <mxGeometry x="235" y="200" width="10" height="110" as="geometry" />
        </mxCell>
        <mxCell id="4k43xHi71d6z0HqlaNtY-3" value="запрос баланса" style="html=1;verticalAlign=bottom;endArrow=block;entryX=0.2;entryY=0.45;exitX=0.933;exitY=0.279;exitDx=0;exitDy=0;exitPerimeter=0;entryDx=0;entryDy=0;entryPerimeter=0;" edge="1" parent="ffn0mK8a2U2mnT5-lBKg-1" source="4k43xHi71d6z0HqlaNtY-5" target="4k43xHi71d6z0HqlaNtY-2">
          <mxGeometry relative="1" as="geometry">
            <mxPoint x="150" y="150" as="sourcePoint" />
          </mxGeometry>
        </mxCell>
        <mxCell id="4k43xHi71d6z0HqlaNtY-4" value="запрос номера договора" style="html=1;verticalAlign=bottom;endArrow=open;dashed=1;endSize=8;exitX=0.067;exitY=0.596;exitDx=0;exitDy=0;exitPerimeter=0;" edge="1" parent="ffn0mK8a2U2mnT5-lBKg-1" source="4k43xHi71d6z0HqlaNtY-2" target="4k43xHi71d6z0HqlaNtY-5">
          <mxGeometry relative="1" as="geometry">
            <mxPoint x="150" y="226" as="targetPoint" />
          </mxGeometry>
        </mxCell>
        <mxCell id="4k43xHi71d6z0HqlaNtY-5" value="" style="html=1;points=[];perimeter=orthogonalPerimeter;" vertex="1" parent="ffn0mK8a2U2mnT5-lBKg-1">
          <mxGeometry x="80" y="210" width="10" height="120" as="geometry" />
        </mxCell>
        <mxCell id="4k43xHi71d6z0HqlaNtY-6" value="номер договора" style="html=1;verticalAlign=bottom;endArrow=block;" edge="1" parent="ffn0mK8a2U2mnT5-lBKg-1" source="4k43xHi71d6z0HqlaNtY-5">
          <mxGeometry width="80" relative="1" as="geometry">
            <mxPoint x="280" y="320" as="sourcePoint" />
            <mxPoint x="230" y="330" as="targetPoint" />
          </mxGeometry>
        </mxCell>
        <mxCell id="4k43xHi71d6z0HqlaNtY-7" value="БД" style="rounded=0;whiteSpace=wrap;html=1;" vertex="1" parent="ffn0mK8a2U2mnT5-lBKg-1">
          <mxGeometry x="380" y="100" width="120" height="60" as="geometry" />
        </mxCell>
        <mxCell id="4k43xHi71d6z0HqlaNtY-8" value="" style="html=1;points=[];perimeter=orthogonalPerimeter;" vertex="1" parent="ffn0mK8a2U2mnT5-lBKg-1">
          <mxGeometry x="460" y="330" width="10" height="80" as="geometry" />
        </mxCell>
        <mxCell id="4k43xHi71d6z0HqlaNtY-9" value="" style="html=1;points=[];perimeter=orthogonalPerimeter;" vertex="1" parent="ffn0mK8a2U2mnT5-lBKg-1">
          <mxGeometry x="235" y="320" width="10" height="120" as="geometry" />
        </mxCell>
        <mxCell id="4k43xHi71d6z0HqlaNtY-10" value="проверка" style="html=1;verticalAlign=bottom;endArrow=block;" edge="1" parent="ffn0mK8a2U2mnT5-lBKg-1">
          <mxGeometry width="80" relative="1" as="geometry">
            <mxPoint x="243" y="330" as="sourcePoint" />
            <mxPoint x="458" y="330" as="targetPoint" />
          </mxGeometry>
        </mxCell>
        <mxCell id="4k43xHi71d6z0HqlaNtY-13" value="" style="html=1;points=[];perimeter=orthogonalPerimeter;" vertex="1" parent="ffn0mK8a2U2mnT5-lBKg-1">
          <mxGeometry x="235" y="450" width="10" height="80" as="geometry" />
        </mxCell>
        <mxCell id="4k43xHi71d6z0HqlaNtY-14" value="остаток" style="html=1;verticalAlign=bottom;endArrow=open;dashed=1;endSize=8;" edge="1" parent="ffn0mK8a2U2mnT5-lBKg-1">
          <mxGeometry relative="1" as="geometry">
            <mxPoint x="455" y="410" as="sourcePoint" />
            <mxPoint x="245" y="410" as="targetPoint" />
          </mxGeometry>
        </mxCell>
        <mxCell id="4k43xHi71d6z0HqlaNtY-15" value="модуль остатка" style="html=1;verticalAlign=bottom;endArrow=block;edgeStyle=orthogonalEdgeStyle;exitX=1.5;exitY=0.125;exitDx=0;exitDy=0;exitPerimeter=0;" edge="1" parent="ffn0mK8a2U2mnT5-lBKg-1" source="4k43xHi71d6z0HqlaNtY-13">
          <mxGeometry width="80" relative="1" as="geometry">
            <mxPoint x="260" y="420" as="sourcePoint" />
            <mxPoint x="250" y="510" as="targetPoint" />
            <Array as="points">
              <mxPoint x="360" y="460" />
              <mxPoint x="360" y="510" />
            </Array>
          </mxGeometry>
        </mxCell>
        <mxCell id="qdhXZ0QJtvPIbAqJOJRi-0" value="запрос остатка" style="html=1;verticalAlign=bottom;endArrow=block;" edge="1" parent="ffn0mK8a2U2mnT5-lBKg-1">
          <mxGeometry width="80" relative="1" as="geometry">
            <mxPoint x="245" y="390" as="sourcePoint" />
            <mxPoint x="460" y="390" as="targetPoint" />
          </mxGeometry>
        </mxCell>
        <mxCell id="qdhXZ0QJtvPIbAqJOJRi-1" value="ответ проверки" style="html=1;verticalAlign=bottom;endArrow=open;dashed=1;endSize=8;" edge="1" parent="ffn0mK8a2U2mnT5-lBKg-1">
          <mxGeometry relative="1" as="geometry">
            <mxPoint x="465.9999999999998" y="362" as="sourcePoint" />
            <mxPoint x="256" y="362" as="targetPoint" />
          </mxGeometry>
        </mxCell>
        <mxCell id="qdhXZ0QJtvPIbAqJOJRi-2" value="" style="html=1;points=[];perimeter=orthogonalPerimeter;" vertex="1" parent="ffn0mK8a2U2mnT5-lBKg-1">
          <mxGeometry x="235" y="550" width="10" height="80" as="geometry" />
        </mxCell>
        <mxCell id="qdhXZ0QJtvPIbAqJOJRi-3" value="создание &lt;br&gt;голосового &lt;br&gt;сообщения" style="html=1;verticalAlign=bottom;endArrow=block;edgeStyle=orthogonalEdgeStyle;exitX=1.122;exitY=0.181;exitDx=0;exitDy=0;exitPerimeter=0;" edge="1" parent="ffn0mK8a2U2mnT5-lBKg-1" source="qdhXZ0QJtvPIbAqJOJRi-2">
          <mxGeometry width="80" relative="1" as="geometry">
            <mxPoint x="360" y="570" as="sourcePoint" />
            <mxPoint x="246" y="620" as="targetPoint" />
            <Array as="points">
              <mxPoint x="360" y="565" />
              <mxPoint x="360" y="620" />
            </Array>
          </mxGeometry>
        </mxCell>
        <mxCell id="qdhXZ0QJtvPIbAqJOJRi-4" value="" style="html=1;points=[];perimeter=orthogonalPerimeter;" vertex="1" parent="ffn0mK8a2U2mnT5-lBKg-1">
          <mxGeometry x="80" y="550" width="10" height="80" as="geometry" />
        </mxCell>
        <mxCell id="qdhXZ0QJtvPIbAqJOJRi-5" value="вывод остатка" style="html=1;verticalAlign=bottom;endArrow=block;" edge="1" parent="ffn0mK8a2U2mnT5-lBKg-1">
          <mxGeometry width="80" relative="1" as="geometry">
            <mxPoint x="230" y="570" as="sourcePoint" />
            <mxPoint x="100" y="570" as="targetPoint" />
          </mxGeometry>
        </mxCell>
      </root>
    </mxGraphModel>
  </diagram>
  <diagram id="1YY6ZYSH_tJileOBET5Y" name="Тех">
    <mxGraphModel dx="618" dy="398" grid="1" gridSize="10" guides="1" tooltips="1" connect="1" arrows="1" fold="1" page="1" pageScale="1" pageWidth="827" pageHeight="1169" math="0" shadow="0">
      <root>
        <mxCell id="P0ZjHMc0jrP62O5cIyy5-0" />
        <mxCell id="P0ZjHMc0jrP62O5cIyy5-1" parent="P0ZjHMc0jrP62O5cIyy5-0" />
        <mxCell id="L-mB2OzCzYHryByPx9-2-0" value="Клиент" style="shape=umlActor;verticalLabelPosition=bottom;verticalAlign=top;html=1;outlineConnect=0;" vertex="1" parent="P0ZjHMc0jrP62O5cIyy5-1">
          <mxGeometry x="70" y="90" width="30" height="60" as="geometry" />
        </mxCell>
        <mxCell id="L-mB2OzCzYHryByPx9-2-1" value="Модуль &quot;запрос баланса&quot;" style="rounded=0;whiteSpace=wrap;html=1;" vertex="1" parent="P0ZjHMc0jrP62O5cIyy5-1">
          <mxGeometry x="170" y="100" width="120" height="60" as="geometry" />
        </mxCell>
        <mxCell id="L-mB2OzCzYHryByPx9-2-2" value="" style="html=1;points=[];perimeter=orthogonalPerimeter;" vertex="1" parent="P0ZjHMc0jrP62O5cIyy5-1">
          <mxGeometry x="235" y="200" width="10" height="110" as="geometry" />
        </mxCell>
        <mxCell id="L-mB2OzCzYHryByPx9-2-3" value="запрос на тех. поддержку" style="html=1;verticalAlign=bottom;endArrow=block;entryX=0.2;entryY=0.45;exitX=0.933;exitY=0.279;exitDx=0;exitDy=0;exitPerimeter=0;entryDx=0;entryDy=0;entryPerimeter=0;" edge="1" parent="P0ZjHMc0jrP62O5cIyy5-1" source="L-mB2OzCzYHryByPx9-2-5" target="L-mB2OzCzYHryByPx9-2-2">
          <mxGeometry relative="1" as="geometry">
            <mxPoint x="150" y="150" as="sourcePoint" />
          </mxGeometry>
        </mxCell>
        <mxCell id="L-mB2OzCzYHryByPx9-2-4" value="запрос номера договора" style="html=1;verticalAlign=bottom;endArrow=open;dashed=1;endSize=8;exitX=0.067;exitY=0.596;exitDx=0;exitDy=0;exitPerimeter=0;" edge="1" parent="P0ZjHMc0jrP62O5cIyy5-1" source="L-mB2OzCzYHryByPx9-2-2" target="L-mB2OzCzYHryByPx9-2-5">
          <mxGeometry relative="1" as="geometry">
            <mxPoint x="150" y="226" as="targetPoint" />
          </mxGeometry>
        </mxCell>
        <mxCell id="L-mB2OzCzYHryByPx9-2-5" value="" style="html=1;points=[];perimeter=orthogonalPerimeter;" vertex="1" parent="P0ZjHMc0jrP62O5cIyy5-1">
          <mxGeometry x="80" y="210" width="10" height="120" as="geometry" />
        </mxCell>
        <mxCell id="L-mB2OzCzYHryByPx9-2-6" value="номер договора" style="html=1;verticalAlign=bottom;endArrow=block;" edge="1" parent="P0ZjHMc0jrP62O5cIyy5-1" source="L-mB2OzCzYHryByPx9-2-5">
          <mxGeometry width="80" relative="1" as="geometry">
            <mxPoint x="280" y="320" as="sourcePoint" />
            <mxPoint x="230" y="330" as="targetPoint" />
          </mxGeometry>
        </mxCell>
        <mxCell id="L-mB2OzCzYHryByPx9-2-7" value="БД" style="rounded=0;whiteSpace=wrap;html=1;" vertex="1" parent="P0ZjHMc0jrP62O5cIyy5-1">
          <mxGeometry x="380" y="100" width="120" height="60" as="geometry" />
        </mxCell>
        <mxCell id="L-mB2OzCzYHryByPx9-2-8" value="" style="html=1;points=[];perimeter=orthogonalPerimeter;" vertex="1" parent="P0ZjHMc0jrP62O5cIyy5-1">
          <mxGeometry x="460" y="330" width="10" height="80" as="geometry" />
        </mxCell>
        <mxCell id="L-mB2OzCzYHryByPx9-2-9" value="" style="html=1;points=[];perimeter=orthogonalPerimeter;" vertex="1" parent="P0ZjHMc0jrP62O5cIyy5-1">
          <mxGeometry x="235" y="320" width="10" height="120" as="geometry" />
        </mxCell>
        <mxCell id="L-mB2OzCzYHryByPx9-2-10" value="проверка" style="html=1;verticalAlign=bottom;endArrow=block;" edge="1" parent="P0ZjHMc0jrP62O5cIyy5-1">
          <mxGeometry width="80" relative="1" as="geometry">
            <mxPoint x="243" y="330" as="sourcePoint" />
            <mxPoint x="458" y="330" as="targetPoint" />
          </mxGeometry>
        </mxCell>
        <mxCell id="L-mB2OzCzYHryByPx9-2-13" value="ответ проверки" style="html=1;verticalAlign=bottom;endArrow=open;dashed=1;endSize=8;" edge="1" parent="P0ZjHMc0jrP62O5cIyy5-1">
          <mxGeometry relative="1" as="geometry">
            <mxPoint x="465.9999999999998" y="362" as="sourcePoint" />
            <mxPoint x="256" y="362" as="targetPoint" />
          </mxGeometry>
        </mxCell>
        <mxCell id="L-mB2OzCzYHryByPx9-2-14" value="маршрутизация" style="html=1;verticalAlign=bottom;endArrow=open;dashed=1;endSize=8;" edge="1" parent="P0ZjHMc0jrP62O5cIyy5-1" target="L-mB2OzCzYHryByPx9-2-15">
          <mxGeometry relative="1" as="geometry">
            <mxPoint x="220" y="420" as="sourcePoint" />
            <mxPoint x="100" y="420" as="targetPoint" />
          </mxGeometry>
        </mxCell>
        <mxCell id="L-mB2OzCzYHryByPx9-2-15" value="" style="html=1;points=[];perimeter=orthogonalPerimeter;" vertex="1" parent="P0ZjHMc0jrP62O5cIyy5-1">
          <mxGeometry x="80" y="380" width="10" height="80" as="geometry" />
        </mxCell>
        <mxCell id="L-mB2OzCzYHryByPx9-2-16" value="" style="html=1;points=[];perimeter=orthogonalPerimeter;" vertex="1" parent="P0ZjHMc0jrP62O5cIyy5-1">
          <mxGeometry x="640" y="370" width="10" height="80" as="geometry" />
        </mxCell>
        <mxCell id="L-mB2OzCzYHryByPx9-2-17" value="маршрутизация" style="html=1;verticalAlign=bottom;endArrow=block;exitX=1.167;exitY=0.964;exitDx=0;exitDy=0;exitPerimeter=0;" edge="1" parent="P0ZjHMc0jrP62O5cIyy5-1" source="L-mB2OzCzYHryByPx9-2-9">
          <mxGeometry width="80" relative="1" as="geometry">
            <mxPoint x="370" y="350" as="sourcePoint" />
            <mxPoint x="630" y="436" as="targetPoint" />
          </mxGeometry>
        </mxCell>
        <mxCell id="L-mB2OzCzYHryByPx9-2-19" value="Техническая поддержка" style="rounded=0;whiteSpace=wrap;html=1;" vertex="1" parent="P0ZjHMc0jrP62O5cIyy5-1">
          <mxGeometry x="585" y="100" width="120" height="60" as="geometry" />
        </mxCell>
      </root>
    </mxGraphModel>
  </diagram>
</mxfile>
